<?xml version="1.0" encoding="UTF-8"?>
<svg xmlns="http://www.w3.org/2000/svg" viewBox="0 0 2025.53 1391.72">
  <g style="isolation: isolate;">
    <g id="Layer_3" data-name="Layer 3">
      <path d="M177.45,1322.01C61.42,1192.01,0,1013.32,0,816.38,0,419.8,240.57,0,682.98,0c278.54,0,537.32,218.76,680.85,412.13,60.06-24.42,120.48-29.79,188.83-29.79,294.65,0,472.87,248.04,472.87,555.32,0,145.65-43.68,287.61-117.19,387.04" style="fill: #d3a7cd;"/>
    </g>
    <g id="Layer_8" data-name="Layer 8">
      <g style="mix-blend-mode: overlay;">
        <path d="M1034.38,545.86H362.7c-2.93,0-6.17-.39-9.08,0-.36.05-.75,0-1.11,0l4.5,4.5V228.04l-6.77,3.89c6.07,2.87,12.15,5.74,18.22,8.61,16.53,7.81,33.06,15.63,49.6,23.44,24.45,11.56,48.91,23.12,73.36,34.68,29.84,14.1,59.67,28.21,89.51,42.31,32.68,15.45,65.37,30.9,98.05,46.35,32.99,15.6,65.99,31.19,98.98,46.79,30.77,14.54,61.53,29.09,92.3,43.63,26,12.29,52.01,24.58,78.01,36.87,18.7,8.84,37.4,17.68,56.1,26.52,8.86,4.19,17.69,8.46,26.59,12.57.38.18.76.36,1.15.54,5.21,2.46,9.78-5.29,4.54-7.77-6.07-2.87-12.15-5.74-18.22-8.61-16.53-7.81-33.06-15.63-49.6-23.44-24.45-11.56-48.91-23.12-73.36-34.68-29.84-14.1-59.67-28.21-89.51-42.31-32.68-15.45-65.37-30.9-98.05-46.35-32.99-15.6-65.99-31.19-98.98-46.79-30.77-14.54-61.53-29.09-92.3-43.63-26-12.29-52.01-24.58-78.01-36.87-18.7-8.84-37.4-17.68-56.1-26.52-8.86-4.19-17.69-8.46-26.59-12.57-.38-.18-.76-.36-1.15-.54-3.01-1.42-6.77.25-6.77,3.89v322.32c0,2.43,2.06,4.5,4.5,4.5h598.11c27.5,0,55.16.88,82.65,0,.37-.01.74,0,1.11,0,5.79,0,5.8-9,0-9Z" style="fill: #b3b3b3;"/>
      </g>
      <path d="M267.86,374.08c12.55,14,25.1,28,37.65,42" style="fill: none; mix-blend-mode: overlay; stroke: #b3b3b3; stroke-linecap: round; stroke-linejoin: round; stroke-width: 3px;"/>
      <path d="M302.21,376.6c-10.28,13.82-20.56,27.64-30.83,41.46" style="fill: none; mix-blend-mode: overlay; stroke: #b3b3b3; stroke-linecap: round; stroke-linejoin: round; stroke-width: 3px;"/>
      <g style="mix-blend-mode: overlay;">
        <path d="M709.85,288.5c-8.02,15.28-16.05,30.56-24.07,45.84" style="fill: none; stroke: #b3b3b3; stroke-linecap: round; stroke-linejoin: round; stroke-width: 3px;"/>
        <path d="M682.4,296.03c12.87,11.55,25.75,23.1,38.62,34.64" style="fill: none; stroke: #b3b3b3; stroke-linecap: round; stroke-linejoin: round; stroke-width: 3px;"/>
      </g>
      <path d="M508.87,576.64c9.84,8.89,19.68,17.77,29.52,26.66" style="fill: none; mix-blend-mode: overlay; stroke: #b3b3b3; stroke-linecap: round; stroke-linejoin: round; stroke-width: 3px;"/>
      <path d="M540.62,578.61c1.87,16.66-.59,33.78-7.07,49.24-2.71,6.46-7.64,13.56-14.64,13.12-6.56-.41-10.83-7.85-10.29-14.4s4.46-12.28,8.24-17.66" style="fill: none; mix-blend-mode: overlay; stroke: #b3b3b3; stroke-linecap: round; stroke-linejoin: round; stroke-width: 3px;"/>
      <g style="mix-blend-mode: overlay;">
        <path d="M1419.68,636c.28,60.47,35.96,117.78,93.06,139.93,56.14,21.78,120.45,1.85,157.16-45.07,38.02-48.58,42.89-117.98,12.3-171.55-29.8-52.19-90.01-81.72-149.41-69.21-58.62,12.35-102.78,63.87-111.32,122.37-1.14,7.81-1.76,15.64-1.8,23.53-.04,7.72,11.96,7.73,12,0,.26-54.97,32.5-108.57,84.86-128.59,51.97-19.88,110.57-1.89,144.48,41.7,34.69,44.59,38.78,108.57,10.82,157.52-27.17,47.58-82.15,75.28-136.5,63.56-54.37-11.73-94.1-58.98-102.19-113.16-1.04-6.96-1.44-14-1.47-21.03-.04-7.72-12.04-7.74-12,0Z" style="fill: #b3b3b3;"/>
        <path d="M1546.33,427.57c.29,14.2.58,28.39.86,42.59.69,34.09,1.38,68.18,2.08,102.28.84,41.25,1.67,82.5,2.51,123.75.72,35.67,1.45,71.33,2.17,107,.35,17.3.08,34.75,1.06,52.03.01.24,0,.49.01.74.16,7.71,12.16,7.74,12,0-.29-14.2-.58-28.39-.86-42.59-.69-34.09-1.38-68.18-2.08-102.28-.84-41.25-1.67-82.5-2.51-123.75-.72-35.67-1.45-71.33-2.17-107-.35-17.3-.08-34.75-1.06-52.03-.01-.24,0-.49-.01-.74-.16-7.71-12.16-7.74-12,0h0Z" style="fill: #b3b3b3;"/>
        <path d="M1760.92,631.21h-131.18c-37.44,0-74.88,0-112.33,0h-96.71c-15.69,0-31.57-.7-47.25,0-.22,0-.44,0-.66,0-7.72,0-7.73,12,0,12,12.91,0,25.81,0,38.72,0,30.82,0,61.64,0,92.46,0,37.44,0,74.88,0,112.33,0,32.24,0,64.47,0,96.71,0,15.69,0,31.57.7,47.25,0,.22,0,.44,0,.66,0,7.72,0,7.73-12,0-12h0Z" style="fill: #b3b3b3;"/>
      </g>
      <g style="mix-blend-mode: overlay;">
        <path d="M508.87,576.64c9.84,8.89,19.68,17.77,29.52,26.66" style="fill: none; mix-blend-mode: overlay; stroke: #b3b3b3; stroke-linecap: round; stroke-linejoin: round; stroke-width: 3px;"/>
        <path d="M540.62,578.61c1.87,16.66-.59,33.78-7.07,49.24-2.71,6.46-7.64,13.56-14.64,13.12-6.56-.41-10.83-7.85-10.29-14.4s4.46-12.28,8.24-17.66" style="fill: none; mix-blend-mode: overlay; stroke: #b3b3b3; stroke-linecap: round; stroke-linejoin: round; stroke-width: 3px;"/>
      </g>
      <g style="mix-blend-mode: overlay;">
        <path d="M1544.19,878.87c9.84,8.89,19.68,17.77,29.52,26.66" style="fill: none; mix-blend-mode: overlay; stroke: #b3b3b3; stroke-linecap: round; stroke-linejoin: round; stroke-width: 3px;"/>
        <path d="M1575.94,880.84c1.87,16.66-.59,33.78-7.07,49.24-2.71,6.46-7.64,13.56-14.64,13.12-6.56-.41-10.83-7.85-10.29-14.4s4.46-12.28,8.24-17.66" style="fill: none; mix-blend-mode: overlay; stroke: #b3b3b3; stroke-linecap: round; stroke-linejoin: round; stroke-width: 3px;"/>
      </g>
      <path d="M1825.54,606.47c-10.28,13.82-20.56,27.64-30.83,41.46" style="fill: none; mix-blend-mode: overlay; stroke: #b3b3b3; stroke-linecap: round; stroke-linejoin: round; stroke-width: 3px;"/>
      <path d="M1794.71,606.47c10.28,13.82,20.56,27.64,30.83,41.46" style="fill: none; mix-blend-mode: overlay; stroke: #b3b3b3; stroke-linecap: round; stroke-linejoin: round; stroke-width: 3px;"/>
      <text transform="translate(659.59 330.67)" style="fill: #b3b3b3; font-family: KristenITC-Regular, &apos;Kristen ITC&apos;; font-size: 48px; mix-blend-mode: overlay;"><tspan x="0" y="0">2</tspan></text>
      <polyline points="352.52 496.21 409.57 496.21 409.57 548.59" style="fill: none; mix-blend-mode: overlay; stroke: #b3b3b3; stroke-linecap: round; stroke-linejoin: round; stroke-width: 6px;"/>
    </g>
    <g id="rectangle">
      <rect x="108.51" y="1320.64" width="1836.17" height="68.09" style="fill: #fff; stroke: #000; stroke-miterlimit: 10; stroke-width: 6px;"/>
    </g>
    <g id="Layer_6" data-name="Layer 6">
      <g>
        <g>
          <path d="M693.66,841.57l.66,10.79h-16.96l-1.98-31.5c6.13.64,12.42,5.89,18.28,20.7h0Z"/>
          <path d="M684.83,698.4l2.6,42.1-.36-.18c-5.32-2.56-11.09-3.68-17-4.07l-6-95.58h-.01l-1.91-30.48,5.39-36.64,11.96,38.3,5.33,86.54h0Z"/>
          <path d="M1052.83,736.07c4.63,7.07-18.4,42.37-49.79,44.39-34.61,2.23-62.94-37.04-58.54-44.39,3.25-5.42,22.91,8.98,59.5,7.52,30.6-1.22,45.62-12.44,48.83-7.52Z" style="fill: #fff;"/>
          <path d="M1095.41,886.07l5.74,2.13c.23.28.47.56.71.84l15.18,16.28-.31.29c-2.22,7.49-5.71,14.62-10.16,21.05-8.02,11.59-19.03,20.94-31.26,27.95-12.22,7-25.65,11.74-39.35,15.05-8.7,2.1-17.54,3.65-26.45,4.62-9.09.98-18.33,1.37-27.33-.25-13.67-2.45-26.07-9.36-38.18-16.16-8.22-4.62-16.57-9.33-23.17-16.06-3.7-3.76-6.77-8.08-9.69-12.46-8.25-12.4-15.39-25.53-21.32-39.19,9.56-1.84,19.07-3.93,28.51-6.29v-.04c.34-.1.68-.19,1.03-.3.74,5.61,3.31,10.91,6.8,15.38,3.81,4.89,8.68,8.85,13.8,12.35,14.15,9.68,30.54,16.05,47.51,18.48,10.03,1.43,20.22,1.5,30.33.88,15.59-.95,31.31-3.61,45.37-10.41,13.8-6.68,25.93-17.73,31.67-31.92.15-.64.3-1.27.45-1.9l.12-.32Z" style="fill: #fafbfc;"/>
          <path d="M1101.15,888.2l-5.74-2.13c-5.88-2.11-11.77-4.22-17.65-6.33-7.95-2.84-16.08-5.8-22.92-10.62-.61-14.69-1.24-29.36-1.86-44.06h0c5.62-2.4,10.8-5.81,15.19-10.05,2.13-2.06,4.06-4.28,5.88-6.6l1.41.81c-3.26,5.17-2.99,12.03-2.06,18.21,3.36,22.31,13.18,43.56,27.75,60.77Z" style="fill: #181930;"/>
          <path d="M1120.35,826.91c-.09.12-.17.25-.26.37l-.49-.35c.08-.12.16-.25.24-.37,2.47-3.81,3.41-8.53,1.83-12.74-3-7.95-12.72-10.69-21.15-11.75-8.59-1.08-18.7-.93-24.11,5.82-.34.43-.66.87-.95,1.33l-1.41-.81c.38-.49.76-.98,1.11-1.47,1.93-2.54,3.73-5.17,5.53-7.79,8-11.67,16.02-23.39,22.51-35.96,6.13-11.89,10.89-24.64,12.63-37.88,8.02-2.84,15.98-5.95,23.15-10.52,7.31-4.65,13.79-11.01,17.36-18.85.97,16.48,1.66,32.95,2.06,49.46h0c-9.78,29.22-21.22,57.08-38.05,81.51Z" style="fill: #181930;"/>
          <path d="M940.12,817.68c.53,18.54,1.07,37.08,1.6,55.63-6.9,4.47-14.46,7.92-22.36,10.22-.35.11-.69.2-1.04.3v.04c-9.43,2.36-18.94,4.45-28.5,6.29-5.73,1.1-11.48,2.11-17.25,3.02-5.08.8-10.46,1.5-15.22-.44h-.15c-4.86-61.6-5.71-123.52-2.57-185.24,1.31,1.28,2.7,2.48,4.15,3.59,7.34,5.63,16.33,9.03,25.54,9.81-.28,19.9,4.99,39.87,15.09,57.01,9.75,16.54,23.97,30.39,40.71,39.77Z" style="fill: #181930;"/>
          <path d="M1115.5,636.01c-3.11,12.14-8.27,23.75-15.25,34.15-1.75,2.61-3.61,5.14-5.5,7.66.42-29.17-1.66-58.33-3.75-87.43-.6-8.29-1.2-16.64-3.35-24.67-2.43-9.09-6.84-17.65-12.83-24.91,2.61,25.31,3.1,50.86,1.44,76.26-26.26.36-116.88,1.08-146.79-.21-.05,0-.09,0-.14,0l.17-.85c2.19-27.84,4.45-56.48,5.01-84.41-6.48,6.87-12.03,15.06-13.65,24.36-.65,3.71-.65,7.5-.65,11.26.02,20.48.22,40.96.59,61.43-.65.46-.8-.07-.69-.86-5.25-8.87-10.32-18.47-15.57-27.34-6.12,25.44-9.51,52.42-9.4,78.58-2.68-12.16-5.1-30.11-7.32-43.87-8.71-2.27-18.23-1.37-26.33,2.56-.57.28-1.14.57-1.7.88,3.14-31.67,7.34-63.24,12.58-94.63,5.49-32.87,12.48-66.44,30.56-94.43,2.88-4.46,6.11-8.76,9.63-12.81,7.26-11.38,33.42-27.13,62.19-33.94h.02c8.9-2.11,18.05-3.36,26.96-3.36,11.51,0,22.39,1.2,32.37,3.21,30.09,1.01,58.01,21.25,74.57,46.9,18.09,27.99,25.07,61.56,30.57,94.43,6.42,38.46,11.26,77.18,14.53,116.04-1.31-2.54-2.81-4.97-4.46-7.26-3.81-5.27-8.51-10.06-14.32-12.98-6.01-3.01-12.7-3.81-19.49-3.75Z" style="fill: #181930;"/>
          <circle cx="944.26" cy="651.36" r="13.06"/>
          <circle cx="1054.26" cy="651.36" r="13.06"/>
          <path d="M1300.3,1068.09c1.9,7.58,3.69,15.29,3.47,23.1-.22,7.81-2.65,15.84-8.16,21.38-6.74,6.78-16.77,8.81-26.17,10.52-3.42.62-6.85,1.24-10.27,1.87-10.55,1.91-21.1,3.83-31.66,5.75-2.91-12.38-5.81-24.77-8.72-37.15-12.26-52.3-24.53-104.64-33.19-157.65-.65-3.95-1.22-16.24-1.1-18.5.22-1.51.64-3.01,1.23-4.48.32-.48.7-.93,1.19-1.34,9.12-.95,22.58-.58,31.7.43,9.11,1.01,18.26,4.17,24.92,10.47,5.68,5.35,9.18,12.56,12.44,19.65,18.64,40.48,33.5,82.71,44.32,125.95Z" style="fill: #19182f;"/>
          <path d="M1117.53,905.85c3.67,8.42,3.78,17.89,3.84,27.08.2,34.87.4,69.73.61,104.6.25,42.43.5,84.85.75,127.27.11,19.45-.9,38.98,1.46,58.22,2.26,18.54,5,37.08,9.76,55.16,3.96,15.05,9.34,29.78,16.88,43.41-64.68-.34-166.42-.86-326.46-1.68-4.37-34.45-8.74-68.89-13.1-103.34-6.76-5.94-14.15-12.11-21.71-18.49-17.02-14.37-34.84-29.78-47.87-45.8h0c-9.67-40.06-15.48-81.03-17.41-122.18,8.46-20.34,19.49-46.57,27.8-66.56,8.81-21.2,22-39.71,35.23-58.47,16.27-23.05,37.61-12.84,69.9-12.33h.15c4.76,1.94,10.14,1.24,15.22.44,5.77-.91,11.52-1.92,17.25-3.02,5.93,13.66,13.07,26.79,21.32,39.19,2.92,4.38,5.99,8.7,9.69,12.46,6.6,6.73,14.95,11.44,23.17,16.06,12.11,6.8,24.51,13.71,38.18,16.16,9,1.62,18.24,1.23,27.33.25,8.91-.97,17.75-2.52,26.45-4.62,13.7-3.31,27.13-8.05,39.35-15.05,12.23-7.01,23.24-16.36,31.26-27.95,4.45-6.43,7.94-13.56,10.16-21.05l.31-.29.49.53Z" style="fill: #19182f;"/>
          <path d="M1184.58,772.24c2.01-2.95,4.03-5.89,6.04-8.84,5.61-8.22,11.24-16.46,17.87-23.88,6.2-6.95,13.26-13.14,20.95-18.38,4.98-3.39,10.44-6.46,16.43-7.05,6-.58,12.64,1.88,15.42,7.22,2.32,4.46,1.54,10.01-.72,14.5-2.27,4.48-5.85,8.14-9.3,11.79-19.5,20.63-36.63,43.48-50.98,67.96,6.24,16.34,9.39,33.87,9.2,51.36-.08,7.85-.93,16.01-5,22.73-3.74,6.18-9.82,10.54-14.44,16.09-1.76,2.11-3.29,4.59-4.32,7.19-.59,1.47-1.01,2.97-1.23,4.48-.12,2.26.45,14.55,1.1,18.5,8.66,53.01,20.93,105.35,33.19,157.65,2.91,12.38,5.81,24.77,8.72,37.15,10.56-1.92,21.11-3.84,31.66-5.75,3.36,66.69-6.35,134.02-28.39,197.04-16.72-.09-41.93-.22-79.95-.41-7.54-13.63-12.92-28.36-16.88-43.41-4.76-18.08-7.5-36.62-9.76-55.16-2.36-19.24-1.35-38.77-1.46-58.22-.25-42.42-.5-84.84-.75-127.27-.21-34.87-.41-69.73-.61-104.6-.06-9.19-.17-18.66-3.84-27.08l-.49-.53-15.18-16.28c-.24-.28-.48-.56-.71-.84-14.57-17.21-24.39-38.46-27.75-60.77-.93-6.18-1.2-13.04,2.06-18.21.29-.46.61-.9.95-1.33,5.41-6.75,15.52-6.9,24.11-5.82,8.43,1.06,18.15,3.8,21.15,11.75,1.58,4.21.64,8.93-1.83,12.74-.08.12-.16.25-.24.37l.49.35c.09-.12.17-.25.26-.37,16.83-24.43,28.27-52.29,38.05-81.5h0c7.21-21.49,13.51-43.7,20.43-65.81,1.03-3.29,2.04-6.69,4.12-9.44,2.09-2.75,5.49-4.78,8.9-4.25,3.82.6,6.58,4.24,7.38,8.02s.17,7.72-.69,11.48c-6.85,30.03-9.43,59.69-13.96,86.83Z" style="fill: #f6a76b;"/>
          <path d="M675.38,820.86l1.98,31.5h16.96l-.66-10.79h0c-5.86-14.82-12.15-20.07-18.28-20.71ZM664.06,640.67h.01l6,95.58c5.91.39,11.68,1.51,17,4.07l.36.18-2.6-42.1c3.59,6.34,8.04,14.61,9.97,20.73,4.58,14.56,9.16,29.11,13.74,43.66,10.09,32.05,20.18,64.08,30.27,96.13-12.41,56.08-17.24,113.81-14.54,171.18,1.93,41.15,7.74,82.12,17.41,122.17h0c13.03,16.03,30.85,31.44,47.87,45.81-9.77,39.2-28.12,84.02-43.4,121.43-21.96-.11-44.86-.24-68.73-.36-25.49-53.48-28.05-119.72-28.04-176.24,0-77.8,11.34-153.16,17.87-230.81l.28-.15c-8.44-15.33-15.45-31.44-20.94-48.05-2.78-8.43-5.5-17.11-7.2-25.84-1.24-6.32.42-10.98.89-17.2,2.82-37.24.47-75.62.68-112.96.14-22.61,1.78-59.33,9.39-66.69,2.94-2.85,5.92-4.6,12.28-.45l1.42-.09Z" style="fill: #f6a76b;"/>
          <path d="M1115.83,725.31c-1.74,13.24-6.5,25.99-12.63,37.88-6.49,12.57-14.51,24.29-22.51,35.96-1.8,2.62-3.6,5.25-5.53,7.79-.35.49-.73.98-1.11,1.47-1.82,2.32-3.75,4.54-5.88,6.6-4.39,4.24-9.57,7.65-15.19,10.04h0c.62,14.71,1.25,29.38,1.86,44.07,6.84,4.82,14.97,7.78,22.92,10.62,5.88,2.11,11.77,4.22,17.65,6.33l-.12.32c-.15.63-.3,1.26-.45,1.9-5.74,14.19-17.87,25.24-31.67,31.92-14.06,6.8-29.78,9.46-45.37,10.41-10.11.62-20.3.55-30.33-.88-16.97-2.43-33.36-8.8-47.51-18.48-5.12-3.5-9.99-7.46-13.8-12.35-3.49-4.47-6.06-9.77-6.8-15.38,7.9-2.3,15.46-5.75,22.36-10.22-.53-18.55-1.07-37.09-1.6-55.63-16.74-9.38-30.96-23.23-40.71-39.77-10.1-17.14-15.37-37.11-15.09-57.01-9.21-.78-18.2-4.18-25.54-9.81-1.45-1.11-2.84-2.31-4.15-3.59-7.43-7.23-12.51-16.86-14.17-27.09-1.15-7.17-.65-14.66,1.84-21.48,3.14-8.58,9.49-15.93,17.49-20.34.56-.31,1.13-.6,1.7-.88,8.1-3.93,17.62-4.83,26.33-2.56,2.22,13.76,4.64,31.71,7.32,43.87-.11-26.16,3.28-53.14,9.4-78.58,5.25,8.87,10.32,18.47,15.57,27.34-.11.79.04,1.32.69.86-.37-20.47-.57-40.95-.59-61.43,0-3.76,0-7.55.65-11.26,1.62-9.3,7.17-17.49,13.65-24.36-.56,27.93-2.82,56.57-5.01,84.41l-.17.85c.05,0,.09,0,.14,0,29.91,1.29,120.53.57,146.79.21,1.66-25.4,1.17-50.95-1.44-76.26,5.99,7.26,10.4,15.82,12.83,24.91,2.15,8.03,2.75,16.38,3.35,24.67,2.09,29.1,4.17,58.26,3.75,87.43,1.89-2.52,3.75-5.05,5.5-7.66,6.98-10.4,12.14-22.01,15.25-34.15,6.79-.06,13.48.74,19.49,3.75,5.81,2.92,10.51,7.71,14.32,12.98,1.65,2.29,3.15,4.72,4.46,7.26,5.4,10.47,7.54,22.71,3.52,33.64-.29.78-.6,1.55-.95,2.3-3.57,7.84-10.05,14.2-17.36,18.85-7.17,4.57-15.13,7.68-23.15,10.52ZM1067.32,651.36c0-7.21-5.84-13.06-13.06-13.06s-13.06,5.85-13.06,13.06,5.85,13.06,13.06,13.06,13.06-5.85,13.06-13.06ZM1003.04,780.46c31.39-2.02,54.42-37.32,49.79-44.39-3.21-4.92-18.23,6.3-48.83,7.52-36.59,1.46-56.25-12.94-59.5-7.52-4.4,7.35,23.93,46.62,58.54,44.39ZM957.32,651.36c0-7.21-5.84-13.06-13.06-13.06s-13.06,5.85-13.06,13.06,5.85,13.06,13.06,13.06,13.06-5.85,13.06-13.06Z" style="fill: #f6a76b;"/>
        </g>
        <g>
          <path d="M886.83,629.21c.33,1.86.66,3.85.99,5.94,2.22,13.76,4.64,31.71,7.32,43.87-.11-26.16,3.28-53.14,9.4-78.58,5.25,8.87,10.32,18.47,15.57,27.34-.11.79.04,1.32.69.86-.37-20.47-.57-40.95-.59-61.43,0-3.76,0-7.55.65-11.26,1.62-9.3,7.17-17.49,13.65-24.36-.56,27.93-2.82,56.57-5.01,84.41" style="fill: none;"/>
          <path d="M1074.82,540.81c2.61,25.31,3.1,50.86,1.44,76.26" style="fill: none;"/>
          <path d="M929.33,616.85c.05,0,.09,0,.14,0,29.91,1.29,120.53.57,146.79.21" style="fill: none;"/>
          <path d="M1074.82,540.81c5.99,7.26,10.4,15.82,12.83,24.91,2.15,8.03,2.75,16.38,3.35,24.67,2.09,29.1,4.17,58.26,3.75,87.43" style="fill: none;"/>
          <path d="M1118.97,605.68c.27,10.21-.92,20.44-3.47,30.33-3.11,12.14-8.27,23.75-15.25,34.15-1.75,2.61-3.61,5.14-5.5,7.66" style="fill: none;"/>
          <path d="M1115.83,725.31c8.02-2.84,15.98-5.95,23.15-10.52,7.31-4.65,13.79-11.01,17.36-18.85.35-.75.66-1.52.95-2.3,4.02-10.93,1.88-23.17-3.52-33.64-1.31-2.54-2.81-4.97-4.46-7.26-3.81-5.27-8.51-10.06-14.32-12.98-6.01-3.01-12.7-3.81-19.49-3.75" style="fill: none;"/>
          <path d="M887.82,635.15c-8.71-2.27-18.23-1.37-26.33,2.56-.57.28-1.14.57-1.7.88-8,4.41-14.35,11.76-17.49,20.34-2.49,6.82-2.99,14.31-1.84,21.48,1.66,10.23,6.74,19.86,14.17,27.09,1.31,1.28,2.7,2.48,4.15,3.59,7.34,5.63,16.33,9.03,25.54,9.81" style="fill: none;"/>
          <path d="M884.4,718.09c-.04.94-.07,1.88-.08,2.81-.28,19.9,4.99,39.87,15.09,57.01,9.75,16.54,23.97,30.39,40.71,39.77,1.44.81,2.9,1.58,4.38,2.32" style="fill: none;"/>
          <path d="M940.12,817.68c.53,18.54,1.07,37.08,1.6,55.63" style="fill: none;"/>
          <path d="M918.32,883.83c.35-.1.69-.19,1.04-.3,7.9-2.3,15.46-5.75,22.36-10.22.8-.51,1.58-1.04,2.36-1.58" style="fill: none;"/>
          <path d="M919.36,883.53c.74,5.61,3.31,10.91,6.8,15.38,3.81,4.89,8.68,8.85,13.8,12.35,14.15,9.68,30.54,16.05,47.51,18.48,10.03,1.43,20.22,1.5,30.33.88,15.59-.95,31.31-3.61,45.37-10.41,13.8-6.68,25.93-17.73,31.67-31.92.12-.26.22-.52.32-.78" style="fill: none;"/>
          <path d="M1052.98,825.06c.62,14.7,1.25,29.37,1.86,44.06" style="fill: none;"/>
          <path d="M1050.35,865.48c1.42,1.32,2.92,2.53,4.49,3.64,6.84,4.82,14.97,7.78,22.92,10.62,5.88,2.11,11.77,4.22,17.65,6.33l5.74,2.13" style="fill: none;"/>
          <path d="M1116.1,723c-.08.77-.17,1.54-.27,2.31-1.74,13.24-6.5,25.99-12.63,37.88-6.49,12.57-14.51,24.29-22.51,35.96-1.8,2.62-3.6,5.25-5.53,7.79-.35.49-.73.98-1.11,1.47-1.82,2.32-3.75,4.54-5.88,6.6-4.39,4.24-9.57,7.65-15.19,10.04h0c-3.49,1.49-7.13,2.59-10.86,3.25" style="fill: none;"/>
          <path d="M854.63,707.5c-3.14,61.72-2.29,123.64,2.57,185.24" style="fill: none;"/>
          <path d="M922.3,426.79c-3.44,3.1-6.7,6.43-9.74,9.93-3.52,4.05-6.75,8.35-9.63,12.81-18.08,27.99-25.07,61.56-30.56,94.43-5.24,31.39-9.44,62.96-12.58,94.63" style="fill: none;"/>
          <path d="M1156.34,695.94c.97,16.48,1.66,32.95,2.06,49.46" style="fill: none;"/>
          <path d="M1034.1,402.63c30.09,1.01,58.01,21.25,74.57,46.9,18.09,27.99,25.07,61.56,30.57,94.43,6.42,38.46,11.26,77.18,14.53,116.04" style="fill: none;"/>
          <path d="M1034.13,402.64s-.02,0-.03-.01c-9.98-2.01-20.86-3.21-32.37-3.21-8.91,0-18.06,1.25-26.96,3.36h-.02c-28.77,6.81-54.93,22.56-62.19,33.94" style="fill: none;"/>
          <path d="M857.35,892.74c4.76,1.94,10.14,1.24,15.22.44,5.77-.91,11.52-1.92,17.25-3.02,9.56-1.84,19.07-3.93,28.51-6.29.31-.07.62-.15.93-.23" style="fill: none;"/>
          <path d="M1095.29,886.39c-.15.63-.3,1.26-.45,1.9l-.39,1.68" style="fill: none;"/>
          <path d="M1116.73,905.61c-2.22,7.49-5.71,14.62-10.16,21.05-8.02,11.59-19.03,20.94-31.26,27.95-12.22,7-25.65,11.74-39.35,15.05-8.7,2.1-17.54,3.65-26.45,4.62-9.09.98-18.33,1.37-27.33-.25-13.67-2.45-26.07-9.36-38.18-16.16-8.22-4.62-16.57-9.33-23.17-16.06-3.7-3.76-6.77-8.08-9.69-12.46-8.25-12.4-15.39-25.53-21.32-39.19" style="fill: none;"/>
          <path d="M811.27,1216.57c-6.76-5.94-14.15-12.11-21.71-18.49-17.02-14.37-34.84-29.78-47.87-45.8" style="fill: none;"/>
          <path d="M1184.5,917.41c-.12,2.26.45,14.55,1.1,18.5,8.66,53.01,20.93,105.35,33.19,157.65,2.91,12.38,5.81,24.77,8.72,37.15.6,2.58,1.21,5.15,1.81,7.73" style="fill: none;"/>
          <path d="M1227.51,1130.71c10.56-1.92,21.11-3.84,31.66-5.75,3.42-.63,6.85-1.25,10.27-1.87,9.4-1.71,19.43-3.74,26.17-10.52,5.51-5.54,7.94-13.57,8.16-21.38.22-7.81-1.57-15.52-3.47-23.1-10.82-43.24-25.68-85.47-44.32-125.95-3.26-7.09-6.76-14.3-12.44-19.65-6.66-6.3-15.81-9.46-24.92-10.47-9.12-1.01-22.58-1.38-31.7-.43-.49.41-.87.86-1.19,1.34" style="fill: none;"/>
          <path d="M1230.78,1322c22.04-63.02,31.75-130.35,28.39-197.04" style="fill: none;"/>
          <path d="M1115.37,666.51c9.21-1.97,18.41-3.93,27.62-5.89" style="fill: none;"/>
          <path d="M857.16,663.66c3.5.76,6.99,1.51,10.49,2.26,3.81.82,7.63,1.65,11.44,2.47" style="fill: none;"/>
          <path d="M1141.46,688.37c1.36-11.23,1.02-16.68-6.52-24.81" style="fill: none;"/>
          <path d="M859.57,687.3c-.07-7.79,2.91-15.57,8.08-21.38.16-.18.31-.35.47-.52" style="fill: none;"/>
          <path d="M857.35,892.74h-.15c-32.29-.51-53.63-10.72-69.9,12.33-13.23,18.76-26.42,37.27-35.23,58.47-8.31,19.99-19.34,46.22-27.8,66.56" style="fill: none;"/>
          <path d="M746.59,1171.32c-1.73-6.32-3.37-12.67-4.9-19.04h0c-9.67-40.06-15.48-81.03-17.41-122.18-2.7-57.37,2.13-115.1,14.54-171.18" style="fill: none;"/>
          <path d="M802.47,1104.09c-1.23,33.35,2.98,66.63,7.18,99.74.54,4.25,1.08,8.49,1.62,12.74,4.36,34.45,8.73,68.89,13.1,103.34.2,1.6.41,3.19.61,4.79" style="fill: none;"/>
          <path d="M667.26,912.1c-6.53,77.65-17.87,153.01-17.87,230.81-.01,56.52,2.55,122.76,28.04,176.24h0" style="fill: none;"/>
          <path d="M662.64,640.76c-6.36-4.15-9.34-2.4-12.28.45-7.61,7.36-9.25,44.08-9.39,66.69-.21,37.34,2.14,75.72-.68,112.96-.47,6.22-2.13,10.88-.89,17.2,1.7,8.73,4.42,17.41,7.2,25.84,5.49,16.61,12.5,32.72,20.94,48.05" style="fill: none;"/>
          <path d="M684.83,698.4c3.59,6.34,8.04,14.61,9.97,20.73,4.58,14.56,9.16,29.11,13.74,43.66,10.09,32.05,20.18,64.08,30.27,96.13" style="fill: none;"/>
          <path d="M653.19,736.45c5.58-.3,11.29-.57,16.88-.2,5.91.39,11.68,1.51,17,4.07l.36.18c10.17,5.18,17.3,20.91,13.02,31.43" style="fill: none;"/>
          <path d="M649.23,767c10.21-11.35,28.91-13.83,41.71-5.52,12.26,7.96,16.61,27.19,11.52,41.06" style="fill: none;"/>
          <path d="M693.66,841.56c-5.86-14.81-12.15-20.06-18.28-20.7-4.59-.49-9.08,1.6-13.23,4.19" style="fill: none;"/>
          <path d="M651.08,805.43c4.87-4.79,9.82-9.63,15.75-13.03s13.05-5.25,19.68-3.6c7.03,1.75,12.57,7.24,15.95,13.74.63,1.18,1.17,2.39,1.64,3.62,3.06,8,3.46,16.73,3.77,25.29.17,4.52.16,9.51-2.79,12.94-2.37,2.76-9.59,2.01-10.83-1.3-.2-.52-.39-1.02-.59-1.52" style="fill: none;"/>
          <polyline points="675.38 820.86 677.36 852.36 694.32 852.36 693.66 841.57 693.66 841.56" style="fill: none;"/>
          <polyline points="687.43 740.5 684.83 698.4 684.83 698.39 679.5 611.85 667.54 573.55 662.15 610.19 664.06 640.67 664.07 640.67 670.07 736.25" style="fill: none;"/>
          <path d="M1095.21,834.31c6.68,1.41,14.04.97,19.74-2.78,1.7-1.12,3.2-2.58,4.39-4.24.09-.12.18-.24.26-.36s.16-.25.24-.37c2.47-3.81,3.41-8.53,1.83-12.74-3-7.95-12.72-10.69-21.15-11.75-8.59-1.08-18.7-.93-24.11,5.82-.34.43-.66.87-.95,1.33-3.26,5.17-2.99,12.03-2.06,18.21,3.36,22.31,13.18,43.56,27.75,60.77.23.28.47.56.71.84l15.18,16.28.49.53c3.67,8.42,3.78,17.89,3.84,27.08.2,34.87.4,69.73.61,104.6.25,42.43.5,84.85.75,127.27.11,19.45-.9,38.98,1.46,58.22,2.26,18.54,5,37.08,9.76,55.16,3.96,15.05,9.34,29.78,16.88,43.41" style="fill: none;"/>
          <path d="M1200.29,815.56c6.24,16.34,9.39,33.87,9.2,51.36-.08,7.85-.93,16.01-5,22.73-3.74,6.18-9.82,10.54-14.44,16.09-1.76,2.11-3.29,4.59-4.32,7.19-.59,1.47-1.01,2.97-1.23,4.48" style="fill: none;"/>
          <path d="M1184.58,772.24c4.53-27.14,7.11-56.8,13.96-86.83.86-3.76,1.49-7.7.69-11.48s-3.56-7.42-7.38-8.02c-3.41-.53-6.81,1.5-8.9,4.25-2.08,2.75-3.09,6.15-4.12,9.44-6.92,22.11-13.22,44.32-20.43,65.8h0c-9.78,29.22-21.22,57.08-38.05,81.51-.09.12-.17.25-.26.37-.08.12-.17.24-.25.36-2.01,2.9-4.1,5.76-6.28,8.55" style="fill: none;"/>
          <path d="M1193.39,829.13c-13.14-.19-26.29.77-39.26,2.85-2.78.45-5.57.96-8.21,1.92-3.45,1.26-6.57,3.28-9.53,5.44-5.36,3.91-10.19,8.56-14.29,13.77-2.49,3.17-4.8,6.85-4.66,10.87.17,4.73,3.65,8.6,6.92,12.01,2.19-4.79,5.34-9.13,9.21-12.71,7.63-7.05,17.81-10.87,28.08-12.42s20.74-.98,31.1-.19" style="fill: none;"/>
          <path d="M1182.3,775.58c.76-1.11,1.52-2.23,2.28-3.34,2.01-2.95,4.03-5.89,6.04-8.84,5.61-8.22,11.24-16.46,17.87-23.88,6.2-6.95,13.26-13.14,20.95-18.38,4.98-3.39,10.44-6.46,16.43-7.05,6-.58,12.64,1.88,15.42,7.22,2.32,4.46,1.54,10.01-.72,14.5-2.27,4.48-5.85,8.14-9.3,11.79-19.5,20.63-36.63,43.48-50.98,67.96-.72,1.21-1.42,2.42-2.12,3.64" style="fill: none;"/>
          <path d="M1124.5,876.09c-1.65,3.49,0,7.9,3.06,10.25,3.06,2.34,7.17,2.92,11.01,2.56s7.54-1.57,11.29-2.47c11.6-2.77,23.91-2.53,35.4.68" style="fill: none;"/>
          <path d="M789.56,1198.08c-9.77,39.2-28.12,84.02-43.4,121.43" style="fill: none;"/>
          <path d="M824.37,1319.91c160.04.82,261.78,1.34,326.46,1.68,38.02.19,63.23.32,79.95.41" style="fill: none;"/>
          <path d="M677.43,1319.15c23.87.12,46.77.25,68.73.36" style="fill: none;"/>
          <circle cx="944.26" cy="651.36" r="13.06" style="fill: none;"/>
          <circle cx="1054.26" cy="651.36" r="13.06" style="fill: none;"/>
          <path d="M944.5,736.07c-4.4,7.35,23.93,46.62,58.54,44.39,31.39-2.02,54.42-37.32,49.79-44.39-3.21-4.92-18.23,6.3-48.83,7.52-36.59,1.46-56.25-12.94-59.5-7.52Z" style="fill: none;"/>
          <path d="M985.82,642.71c7.49,21.76,4.64,33.17,0,39.62-3.62,5.04-8.79,7.68-8.6,13.01.21,6.35,7.87,12.14,14.8,13.53,9.14,1.83,19.31-3.54,25.54-13.53" style="fill: none;"/>
        </g>
      </g>
    </g>
    <g id="Layer_7" data-name="Layer 7">
      <path d="M940.92,818.66s56.47,14.33,74.74,14.42c10.33.05,36.3-7.73,36.3-7.73l1.95,43.77s-39.29,19.11-75.37-15.54c-36.08-34.65-37.62-34.91-37.62-34.91Z" style="fill: #ccc; mix-blend-mode: multiply; opacity: .46; stroke: #b3b3b3; stroke-miterlimit: 10;"/>
      <path d="M651.68,1192.98s40.29-7.27,52.87-12.5c10.1-4.2,37.86-25.25,37.86-25.25,0,0,46.19,35.81,47.15,42.85,1.55,11.27-43.4,121.43-43.4,121.43l-67.79-.36s-16.43-33.18-21.31-65.96c-2.22-14.95-5.38-60.21-5.38-60.21Z" style="fill: #ccc; mix-blend-mode: multiply; opacity: .46; stroke: #b3b3b3; stroke-miterlimit: 10;"/>
      <path d="M1259.17,1124.96l-31.66,5.75s-121.05,66.33-195.43,83.68c-111.76,26.08-220.81,2.18-220.81,2.18l12.97,102.31s401.54,4.49,406.54,3.12c5-1.36,22.6-83.94,25.71-112.67,2.27-20.98,2.68-84.37,2.68-84.37Z" style="fill: #ccc; mix-blend-mode: multiply; opacity: .46; stroke: #b3b3b3; stroke-miterlimit: 10;"/>
      <path d="M888.22,878.35c-1.96-21.46-3.93-42.92-5.89-64.38-.62-6.74-2.29-55.58-9.09-53.95s.79,48.18,1.79,55.42c2.93,21.24,7.34,42.28,13.19,62.91Z" style="fill: #f2f2f2; opacity: .04;"/>
      <path d="M918.66,875.04c-2.47-4.68,8.75-45.81-7.63-44.37-9.85.86,4.61,38.64,7.63,44.37Z" style="fill: #f2f2f2; opacity: .04;"/>
      <path d="M1130.04,790.64c.17,1.56.67,3.5,2.21,3.78,1.15.21,2.26-.75,2.63-1.86s.19-2.32,0-3.48c-1.59-10.05-3.17-20.1-4.76-30.15-.47-2.96-3.45-27.81-5.76-27.21-2.62.68,5.08,53.05,5.67,58.92Z" style="fill: #f2f2f2; opacity: .04;"/>
      <path d="M1133.34,618.41c4.02-1.81,4.29-7.32,3.93-11.71-2.99-37.29-6.16-75.34-20.8-109.78-4.2-9.88-9.31-19.36-15.1-28.4-6.8-10.62-14.62-20.72-24.24-28.87-9.63-8.15-21.17-14.31-33.63-16.33-2.05-.33-4.34-.5-6.01.72-1.68,1.22-1.89,4.35-1.89,4.35,10.99-.49,23.07,9.22,30.44,16.45,7.98,7.83,14.32,17.16,20.12,26.72,26.92,44.35,43.23,95.11,47.17,146.84Z" style="fill: #f2f2f2; opacity: .04;"/>
      <path d="M1090.92,503.17c4.15,7.76,6.34,16.39,8.24,24.98,5.29,23.83,8.68,48.08,10.12,72.44,3.6-1.18,4.07-6,3.83-9.78-1.87-29.07-6.81-57.94-14.71-85.98-1.78-6.3-3.95-12.94-9.01-17.1-3.9-3.21-12.18-5.76-16.63-2.46,7.65,4.97,13.72,9.58,18.16,17.9Z" style="fill: #f2f2f2; opacity: .04;"/>
      <path d="M881.32,605.22c6.51-29.22,11.67-58.75,15.46-88.44.31-2.39.6-4.85.05-7.2-.55-2.35-2.14-4.61-4.46-5.27-4.11,5.72-4.38,14.77-5.52,21.54-1.47,8.73-2.66,17.51-3.57,26.32-1.81,17.62-2.47,35.35-1.97,53.06Z" style="fill: #f2f2f2; opacity: .04;"/>
    </g>
    <g id="Layer_4" data-name="Layer 4">
      <path d="M1074.82,540.81c2.61,25.31,3.1,50.86,1.44,76.26" style="fill: none; stroke: #000; stroke-miterlimit: 10;"/>
      <g>
        <path d="M886.83,629.21c1.24,7.25,2.93,17.57,4.07,24.92,1.33,8.31,2.72,16.62,4.5,24.83l-.52.06c-.13-26.81,3.23-53.61,9.49-79.67,5.56,9.3,10.62,18.89,16.14,28.19l.09.15-.02.16c-.03.23-.04.5,0,.58,0,.01,0,0-.04-.05-.05-.04-.14-.05-.15-.05-.03,0,.07-.03.14-.08l-.2.4c-.22-16.84-.28-33.69-.43-50.53.12-7.39-.8-18.1,1.28-25.25,2.32-8.52,7.66-15.83,13.69-22.12-.57,28.48-2.94,56.88-5.36,85.25,2.03-28.11,4.13-56.24,4.68-84.42,0,0,.57.23.57.23-9.07,9.55-14.75,20.23-14.13,33.67.18,20.93.53,42.24.66,63.14,0,0,0,.27,0,.27l-.2.13c-.15.09-.29.21-.6.25-.3.07-.75-.24-.8-.53-.13-.44-.07-.73-.04-1.03l.06.31c-5.33-9.05-10.2-18.34-15.52-27.37l.76-.11c-6.2,25.67-9.57,52.06-9.54,78.48v2.46c-2.02-9.02-3.41-18.18-4.78-27.31-1.04-7.44-2.62-17.67-3.79-24.97h0Z"/>
        <path d="M929.33,616.85c46.65.67,100.15-.02,146.93.22-48.96,1.08-97.99,1.83-146.93-.22h0Z"/>
        <path d="M1074.82,540.81c12.41,14.41,15.59,30.73,16.6,49.14,1.27,17.01,2.59,35.72,3.16,52.68.4,11.72.53,23.46.16,35.18-.08-23.45-1.39-46.86-3.04-70.25-1.9-24.17-.57-46.77-16.89-66.76h0Z"/>
        <path d="M1118.97,605.68c1.47,26-7.64,52.15-24.22,72.14,0,0,5.45-8.03,5.45-8.03,12.25-19,18.72-41.52,18.77-64.11h0Z"/>
      </g>
      <path d="M1115.83,725.31c20.3-8.02,43.46-20.72,41.97-45.81-.85-15.26-11.38-34.01-25.76-40.23-5.14-2.21-10.85-2.97-16.54-3.26,5.68-.38,11.53-.04,17.07,1.88,11.15,4.01,18.97,14.03,23.89,24.45,7.95,17.29,5.29,35.7-9.73,48.09-8.87,7.55-19.91,11.65-30.89,14.88h0Z"/>
      <path d="M887.82,635.15c-24.32-5.16-47.18,13.65-46.44,38.38.08,23.82,19.29,44.52,42.95,47.37-31.77-.46-55.57-35.82-42.19-65.25,7.8-17.03,27.81-26.3,45.69-20.5h0Z"/>
      <path d="M884.45,718.09c-1.69,42.44,22.71,82.29,60.07,101.86,0,0-.05.09-.05.09-9.45-4.43-18.18-10.41-25.87-17.5-23.03-21.22-36.02-53.4-34.15-84.46h0Z"/>
      <path d="M940.12,817.68c.53,18.54,1.07,37.08,1.6,55.63" style="fill: none; stroke: #000; stroke-miterlimit: 10;"/>
      <path d="M918.32,883.83c.35-.1.69-.19,1.04-.3,7.9-2.3,15.46-5.75,22.36-10.22.8-.51,1.58-1.04,2.36-1.58" style="fill: none; stroke: #000; stroke-miterlimit: 10;"/>
      <path d="M919.36,883.53c.74,5.61,3.31,10.91,6.8,15.38,3.81,4.89,8.68,8.85,13.8,12.35,14.15,9.68,30.54,16.05,47.51,18.48,10.03,1.43,20.22,1.5,30.33.88,15.59-.95,31.31-3.61,45.37-10.41,13.8-6.68,25.93-17.73,31.67-31.92.12-.26.22-.52.32-.78" style="fill: none; stroke: #000; stroke-miterlimit: 10; stroke-width: 3px;"/>
      <path d="M1052.98,825.06c.62,14.7,1.25,29.37,1.86,44.06" style="fill: none; stroke: #000; stroke-miterlimit: 10;"/>
      <path d="M1050.35,865.48c1.42,1.32,2.92,2.53,4.49,3.64,6.84,4.82,14.97,7.78,22.92,10.62,5.88,2.11,11.77,4.22,17.65,6.33l5.74,2.13" style="fill: none; stroke: #000; stroke-miterlimit: 10;"/>
      <path d="M1116.15,723.01c-2.56,25.93-16.45,48.84-30.71,70-2.12,3.22-6.53,9.58-8.79,12.7-2.94,4.24-6.34,8.22-10.31,11.57-3.96,3.36-8.46,6.06-13.24,8.02l.16-.25h0s0,.19,0,.19l-.16.07c-3.47,1.34-7.44,2.69-10.97,2.94,3.71-.73,7.31-1.93,10.76-3.44l-.17.25h0s0-.18,0-.18l.17-.07c7.02-3.12,13.28-7.79,18.25-13.63,4.64-5.37,9.44-12.85,13.56-18.67,14.56-20.91,28.34-43.93,31.47-69.49h0Z"/>
      <path d="M854.63,707.5c-3.14,61.72-2.29,123.64,2.57,185.24" style="fill: none; stroke: #000; stroke-miterlimit: 10; stroke-width: 3px;"/>
      <path d="M922.3,426.79c-3.44,3.1-6.7,6.43-9.74,9.93-3.52,4.05-6.75,8.35-9.63,12.81-18.08,27.99-25.07,61.56-30.56,94.43-5.24,31.39-9.44,62.96-12.58,94.63" style="fill: none; stroke: #000; stroke-miterlimit: 10; stroke-width: 3px;"/>
      <path d="M1156.34,695.94c.97,16.48,1.66,32.95,2.06,49.46" style="fill: none; stroke: #000; stroke-miterlimit: 10; stroke-width: 3px;"/>
      <path d="M1034.1,402.63c30.09,1.01,58.01,21.25,74.57,46.9,18.09,27.99,25.07,61.56,30.57,94.43,6.42,38.46,11.26,77.18,14.53,116.04" style="fill: none; stroke: #000; stroke-miterlimit: 10; stroke-width: 3px;"/>
      <path d="M1034.13,402.64s-.02,0-.03-.01c-9.98-2.01-20.86-3.21-32.37-3.21-8.91,0-18.06,1.25-26.96,3.36h-.02c-28.77,6.81-54.93,22.56-62.19,33.94" style="fill: none; stroke: #000; stroke-miterlimit: 10; stroke-width: 3px;"/>
      <path d="M857.35,892.74c4.76,1.94,10.14,1.24,15.22.44,5.77-.91,11.52-1.92,17.25-3.02,9.56-1.84,19.07-3.93,28.51-6.29.31-.07.62-.15.93-.23" style="fill: none; stroke: #000; stroke-miterlimit: 10;"/>
      <path d="M1095.29,886.39c-.15.63-.3,1.26-.45,1.9l-.39,1.68" style="fill: none; stroke: #000; stroke-miterlimit: 10;"/>
      <path d="M1116.73,905.61c-2.22,7.49-5.71,14.62-10.16,21.05-8.02,11.59-19.03,20.94-31.26,27.95-12.22,7-25.65,11.74-39.35,15.05-8.7,2.1-17.54,3.65-26.45,4.62-9.09.98-18.33,1.37-27.33-.25-13.67-2.45-26.07-9.36-38.18-16.16-8.22-4.62-16.57-9.33-23.17-16.06-3.7-3.76-6.77-8.08-9.69-12.46-8.25-12.4-15.39-25.53-21.32-39.19" style="fill: none; stroke: #000; stroke-miterlimit: 10;"/>
      <path d="M811.27,1216.57c-6.76-5.94-14.15-12.11-21.71-18.49-17.02-14.37-34.84-29.78-47.87-45.8" style="fill: none; stroke: #000; stroke-miterlimit: 10;"/>
      <path d="M1184.5,917.41c-.12,2.26.45,14.55,1.1,18.5,8.66,53.01,20.93,105.35,33.19,157.65,2.91,12.38,5.81,24.77,8.72,37.15.6,2.58,1.21,5.15,1.81,7.73" style="fill: none; stroke: #000; stroke-miterlimit: 10; stroke-width: 3px;"/>
      <path d="M1227.51,1130.71c10.56-1.92,21.11-3.84,31.66-5.75,3.42-.63,6.85-1.25,10.27-1.87,9.4-1.71,19.43-3.74,26.17-10.52,5.51-5.54,7.94-13.57,8.16-21.38.22-7.81-1.57-15.52-3.47-23.1-10.82-43.24-25.68-85.47-44.32-125.95-3.26-7.09-6.76-14.3-12.44-19.65-6.66-6.3-15.81-9.46-24.92-10.47-9.12-1.01-22.58-1.38-31.7-.43-.49.41-.87.86-1.19,1.34" style="fill: none; stroke: #000; stroke-miterlimit: 10;"/>
      <path d="M1230.78,1322c22.04-63.02,31.75-130.35,28.39-197.04" style="fill: none; stroke: #000; stroke-miterlimit: 10; stroke-width: 3px;"/>
      <polygon points="1115.16 665.53 1142.99 660.62 1115.58 667.49 1115.16 665.53 1115.16 665.53"/>
      <polygon points="857.37 662.68 879.09 668.39 856.95 664.64 857.37 662.68 857.37 662.68"/>
      <path d="M1140.47,688.25c1.75-10.03,1.6-16.78-5.53-24.69,1.57,1.59,3.07,3.27,4.32,5.15,4.09,5.71,3.78,13.11,3.19,19.78,0,0-1.99-.24-1.99-.24h0Z"/>
      <path d="M858.57,687.31c.26-8.2,3.79-16.17,9.55-21.91-2.6,3.06-4.6,6.59-5.88,10.33-1.29,3.74-1.87,7.69-1.67,11.56,0,0-2,.02-2,.02h0Z"/>
      <path d="M857.35,892.74h-.15c-32.29-.51-53.63-10.72-69.9,12.33-13.23,18.76-26.42,37.27-35.23,58.47-8.31,19.99-19.34,46.22-27.8,66.56" style="fill: none; stroke: #000; stroke-miterlimit: 10;"/>
      <path d="M746.59,1171.32c-1.73-6.32-3.37-12.67-4.9-19.04h0c-9.67-40.06-15.48-81.03-17.41-122.18-2.7-57.37,2.13-115.1,14.54-171.18" style="fill: none; stroke: #000; stroke-miterlimit: 10; stroke-width: 3px;"/>
      <path d="M802.47,1104.09c-1.23,33.35,2.98,66.63,7.18,99.74.54,4.25,1.08,8.49,1.62,12.74,4.36,34.45,8.73,68.89,13.1,103.34.2,1.6.41,3.19.61,4.79" style="fill: none; stroke: #000; stroke-miterlimit: 10;"/>
      <path d="M667.26,912.1c-6.53,77.65-17.87,153.01-17.87,230.81-.01,56.52,2.55,122.76,28.04,176.24h0" style="fill: none; stroke: #000; stroke-miterlimit: 10; stroke-width: 3px;"/>
      <path d="M662.64,640.76c-6.36-4.15-9.34-2.4-12.28.45-7.61,7.36-9.25,44.08-9.39,66.69-.21,37.34,2.14,75.72-.68,112.96-.47,6.22-2.13,10.88-.89,17.2,1.7,8.73,4.42,17.41,7.2,25.84,5.49,16.61,12.5,32.72,20.94,48.05" style="fill: none; stroke: #000; stroke-miterlimit: 10; stroke-width: 3px;"/>
      <path d="M684.83,698.4c3.59,6.34,8.04,14.61,9.97,20.73,4.58,14.56,9.16,29.11,13.74,43.66,10.09,32.05,20.18,64.08,30.27,96.13" style="fill: none; stroke: #000; stroke-miterlimit: 10; stroke-width: 3px;"/>
      <path d="M653.19,736.45c5.58-.3,11.29-.57,16.88-.2,5.91.39,11.68,1.51,17,4.07l.36.18c10.17,5.18,17.3,20.91,13.02,31.43" style="fill: none; stroke: #000; stroke-miterlimit: 10; stroke-width: 3px;"/>
      <path d="M649.23,767c10.21-11.35,28.91-13.83,41.71-5.52,12.26,7.96,16.61,27.19,11.52,41.06" style="fill: none; stroke: #000; stroke-miterlimit: 10; stroke-width: 3px;"/>
      <path d="M693.66,841.56c-5.86-14.81-12.15-20.06-18.28-20.7-4.59-.49-9.08,1.6-13.23,4.19" style="fill: none; stroke: #000; stroke-miterlimit: 10; stroke-width: 3px;"/>
      <path d="M651.08,805.43c4.87-4.79,9.82-9.63,15.75-13.03s13.05-5.25,19.68-3.6c7.03,1.75,12.57,7.24,15.95,13.74.63,1.18,1.17,2.39,1.64,3.62,3.06,8,3.46,16.73,3.77,25.29.17,4.52.16,9.51-2.79,12.94-2.37,2.76-9.59,2.01-10.83-1.3-.2-.52-.39-1.02-.59-1.52" style="fill: none; stroke: #000; stroke-miterlimit: 10; stroke-width: 3px;"/>
      <polyline points="675.38 820.86 677.36 852.36 694.32 852.36 693.66 841.57 693.66 841.56" style="fill: none; stroke: #000; stroke-miterlimit: 10;"/>
      <polyline points="687.43 740.5 684.83 698.4 684.83 698.39 679.5 611.85 667.54 573.55 662.15 610.19 664.06 640.67 664.07 640.67 670.07 736.25" style="fill: none; stroke: #000; stroke-miterlimit: 10; stroke-width: 3px;"/>
      <path d="M1095.21,834.31c6.68,1.41,14.04.97,19.74-2.78,1.7-1.12,3.2-2.58,4.39-4.24.18-.24.34-.48.5-.73,2.47-3.81,3.41-8.53,1.83-12.74-3-7.95-12.72-10.69-21.15-11.75-8.59-1.08-18.7-.93-24.11,5.82-.34.43-.66.87-.95,1.33-3.26,5.17-2.99,12.03-2.06,18.21,3.36,22.31,13.18,43.56,27.75,60.77.23.28.47.56.71.84l15.18,16.28.49.53c3.67,8.42,3.78,17.89,3.84,27.08.2,34.87.4,69.73.61,104.6.25,42.43.5,84.85.75,127.27.11,19.45-.9,38.98,1.46,58.22,2.26,18.54,5,37.08,9.76,55.16,3.96,15.05,9.34,29.78,16.88,43.41" style="fill: none; stroke: #000; stroke-miterlimit: 10; stroke-width: 3px;"/>
      <line x1="1184.48" y1="921.62" x2="1184.48" y2="921.63" style="fill: none; stroke: #000; stroke-miterlimit: 10;"/>
      <path d="M1200.29,815.56c6.24,16.34,9.39,33.87,9.2,51.36-.08,7.85-.93,16.01-5,22.73-3.74,6.18-9.82,10.54-14.44,16.09-1.76,2.11-3.29,4.59-4.32,7.19-.59,1.47-1.01,2.97-1.23,4.48" style="fill: none; stroke: #000; stroke-miterlimit: 10; stroke-width: 3px;"/>
      <path d="M1184.58,772.24c4.53-27.14,7.11-56.8,13.96-86.83.86-3.76,1.49-7.7.69-11.48s-3.56-7.42-7.38-8.02c-3.41-.53-6.81,1.5-8.9,4.25-2.08,2.75-3.09,6.15-4.12,9.44-6.92,22.11-13.22,44.32-20.43,65.8h0c-9.78,29.22-21.22,57.08-38.05,81.51-.17.24-.34.49-.51.73-2.01,2.9-4.1,5.76-6.28,8.55" style="fill: none; stroke: #000; stroke-miterlimit: 10; stroke-width: 3px;"/>
      <path d="M1193.39,829.13c-13.14-.19-26.29.77-39.26,2.85-2.78.45-5.57.96-8.21,1.92-3.45,1.26-6.57,3.28-9.53,5.44-5.36,3.91-10.19,8.56-14.29,13.77-2.49,3.17-4.8,6.85-4.66,10.87.17,4.73,3.65,8.6,6.92,12.01,2.19-4.79,5.34-9.13,9.21-12.71,7.63-7.05,17.81-10.87,28.08-12.42s20.74-.98,31.1-.19" style="fill: none; stroke: #000; stroke-miterlimit: 10; stroke-width: 3px;"/>
      <path d="M1182.3,775.58c.76-1.11,1.52-2.23,2.28-3.34,2.01-2.95,4.03-5.89,6.04-8.84,5.61-8.22,11.24-16.46,17.87-23.88,6.2-6.95,13.26-13.14,20.95-18.38,4.98-3.39,10.44-6.46,16.43-7.05,6-.58,12.64,1.88,15.42,7.22,2.32,4.46,1.54,10.01-.72,14.5-2.27,4.48-5.85,8.14-9.3,11.79-19.5,20.63-36.63,43.48-50.98,67.96-.72,1.21-1.42,2.42-2.12,3.64" style="fill: none; stroke: #000; stroke-miterlimit: 10; stroke-width: 3px;"/>
      <path d="M1124.5,876.09c-1.65,3.49,0,7.9,3.06,10.25,3.06,2.34,7.17,2.92,11.01,2.56s7.54-1.57,11.29-2.47c11.6-2.77,23.91-2.53,35.4.68" style="fill: none; stroke: #000; stroke-miterlimit: 10; stroke-width: 3px;"/>
      <path d="M789.56,1198.08c-9.77,39.2-28.12,84.02-43.4,121.43" style="fill: none; stroke: #000; stroke-miterlimit: 10; stroke-width: 3px;"/>
      <path d="M824.37,1319.91c160.04.82,261.78,1.34,326.46,1.68,38.02.19,63.23.32,79.95.41" style="fill: none; stroke: #000; stroke-miterlimit: 10;"/>
      <path d="M677.43,1319.15c23.87.12,46.77.25,68.73.36" style="fill: none; stroke: #000; stroke-miterlimit: 10;"/>
      <circle cx="944.26" cy="651.36" r="13.06" style="fill: none; stroke: #000; stroke-miterlimit: 10;"/>
      <circle cx="1054.26" cy="651.36" r="13.06" style="fill: none; stroke: #000; stroke-miterlimit: 10;"/>
      <path d="M944.5,736.07c-4.4,7.35,23.93,46.62,58.54,44.39,31.39-2.02,54.42-37.32,49.79-44.39-3.21-4.92-18.23,6.3-48.83,7.52-36.59,1.46-56.25-12.94-59.5-7.52Z" style="fill: none; stroke: #000; stroke-miterlimit: 10; stroke-width: 3px;"/>
      <path d="M985.96,642.66c4.4,12.61,8.68,27.96.74,40.1-2.32,3.69-6.66,6.44-8,10.46-1.79,8.12,9.79,14.4,16.72,14.5,8.83.24,16.76-5.56,22.01-12.46,0,0,.25.16.25.16-5.08,10.46-17.78,18.66-29.5,13.94-6.53-2.58-13.97-9.04-11.78-16.85,1.73-4.74,6.04-7.03,8.7-10.87,5.31-7.28,5.24-17.06,3.82-25.68-.74-4.46-1.9-8.86-3.26-13.19l.28-.1h0Z"/>
    </g>
  </g>
</svg>